<?xml version="1.0" encoding="UTF-8" standalone="no"?>
<!-- Created with Inkscape (http://www.inkscape.org/) -->

<svg
   width="206.28203mm"
   height="48.006344mm"
   viewBox="0 0 206.28203 48.006344"
   version="1.1"
   id="svg25462"
   inkscape:version="1.1.1 (eb90963e84, 2021-10-02)"
   sodipodi:docname="manifestor-logo.svg"
   xmlns:inkscape="http://www.inkscape.org/namespaces/inkscape"
   xmlns:sodipodi="http://sodipodi.sourceforge.net/DTD/sodipodi-0.dtd"
   xmlns="http://www.w3.org/2000/svg"
   xmlns:svg="http://www.w3.org/2000/svg">
  <sodipodi:namedview
     id="namedview25464"
     pagecolor="#ffffff"
     bordercolor="#666666"
     borderopacity="1.0"
     inkscape:pageshadow="2"
     inkscape:pageopacity="0.0"
     inkscape:pagecheckerboard="0"
     inkscape:document-units="mm"
     showgrid="false"
     inkscape:zoom="0.52738496"
     inkscape:cx="372.59311"
     inkscape:cy="110.92466"
     inkscape:window-width="1480"
     inkscape:window-height="800"
     inkscape:window-x="0"
     inkscape:window-y="0"
     inkscape:window-maximized="1"
     inkscape:current-layer="layer1" />
  <defs
     id="defs25459" />
  <g
     inkscape:label="Layer 1"
     inkscape:groupmode="layer"
     id="layer1"
     transform="translate(-95.024355,-199.90698)">
    <circle
       style="opacity:1;fill:#000000;stroke:#000000;stroke-width:1.97741;stroke-linecap:round;stroke-linejoin:round;stroke-miterlimit:4;stroke-dasharray:none;stop-color:#000000"
       id="path26099"
       cx="119.02753"
       cy="223.91016"
       r="23.014467" />
    <path
       sodipodi:type="spiral"
       style="fill:#ffffff;fill-rule:evenodd;stroke:#ffffff;stroke-width:0;stroke-linecap:round;stroke-linejoin:round;stroke-miterlimit:4;stroke-dasharray:none"
       id="path25856"
       sodipodi:cx="440.85443"
       sodipodi:cy="830.89801"
       sodipodi:expansion="0.93000001"
       sodipodi:revolution="5.2252712"
       sodipodi:radius="163.51424"
       sodipodi:argument="-33.131489"
       sodipodi:t0="0"
       d="m 440.85443,830.89801 c -0.86273,-5.91777 7.29548,-4.22152 9.57705,-1.3962 5.55124,6.87423 -0.004,16.45138 -6.91691,19.64312 -11.90644,5.4977 -25.18495,-2.82117 -29.2646,-14.36837 -5.83289,-16.50959 5.4963,-33.82754 21.53616,-38.64398 20.95968,-6.29376 42.35554,8.08462 47.85156,28.52824 6.80693,25.31984 -10.61325,50.77979 -35.39355,56.92604 -29.61538,7.3455 -59.11341,-13.09741 -65.89201,-42.16005 -7.89754,-33.85995 15.54645,-67.36775 48.84578,-74.76653 38.06218,-8.45704 75.55212,17.96662 83.56212,55.46335 9.0207,42.22809 -20.36237,83.67407 -62.02203,92.2883 -46.36219,9.5866 -91.73987,-22.73695 -100.95265,-68.52891 -10.15353,-50.46794 25.09292,-99.75469 74.98964,-109.56126 54.54813,-10.72075 107.72288,27.43229 118.11914,81.40874 11.28777,58.60506 -29.75668,115.64819 -87.78997,126.63054 -62.64064,11.85426 -123.53381,-32.06743 -135.09904,-94.13649 -12.41999,-66.65648 34.36569,-131.3825 100.45098,-143.5277 70.65399,-12.98485 139.19671,36.65239 151.91924,106.73571 13.5487,74.6344 -38.92839,146.97859 -112.99273,160.27601 -78.59875,14.11151 -154.73003,-41.1944 -168.60007,-119.22378 -14.67325,-82.548 43.45103,-162.45273 125.43041,-176.8933 76.97589,-13.55921 153.75488,33.3404 178.84576,106.96267"
       transform="matrix(0.10724497,-0.04589161,0.04589161,0.10724497,34.026922,155.55509)" />
    <text
       xml:space="preserve"
       style="font-size:35.2595px;line-height:1.25;font-family:Mulish;-inkscape-font-specification:Mulish;fill:#ffffff;stroke:none;stroke-width:0.881489"
       x="152.2627"
       y="239.16536"
       id="text2983"><tspan
         sodipodi:role="line"
         id="tspan2981"
         style="font-style:normal;font-variant:normal;font-weight:normal;font-stretch:normal;font-family:'Fjalla One';-inkscape-font-specification:'Fjalla One';fill:#ffffff;stroke:none;stroke-width:0.881489"
         x="152.2627"
         y="239.16536">Manifestor</tspan></text>
  </g>
</svg>
