<?xml version="1.0" encoding="UTF-8" standalone="no"?>
<!-- Created with Inkscape (http://www.inkscape.org/) -->

<svg
   width="214.28987mm"
   height="51.826832mm"
   viewBox="0 0 214.28987 51.826832"
   version="1.1"
   id="svg25462"
   inkscape:version="1.1.1 (eb90963e84, 2021-10-02)"
   sodipodi:docname="manifestor-logo.svg"
   xmlns:inkscape="http://www.inkscape.org/namespaces/inkscape"
   xmlns:sodipodi="http://sodipodi.sourceforge.net/DTD/sodipodi-0.dtd"
   xmlns="http://www.w3.org/2000/svg"
   xmlns:svg="http://www.w3.org/2000/svg">
  <sodipodi:namedview
     id="namedview25464"
     pagecolor="#ffffff"
     bordercolor="#666666"
     borderopacity="1.0"
     inkscape:pageshadow="2"
     inkscape:pageopacity="0.0"
     inkscape:pagecheckerboard="0"
     inkscape:document-units="mm"
     showgrid="false"
     inkscape:zoom="0.52738496"
     inkscape:cx="501.53118"
     inkscape:cy="437.06214"
     inkscape:window-width="1480"
     inkscape:window-height="800"
     inkscape:window-x="0"
     inkscape:window-y="0"
     inkscape:window-maximized="1"
     inkscape:current-layer="text2983" />
  <defs
     id="defs25459" />
  <g
     inkscape:label="Layer 1"
     inkscape:groupmode="layer"
     id="layer1"
     transform="translate(-92.817703,-197.81007)">
    <rect
       style="opacity:1;fill:#b4428e;fill-opacity:1;stroke:none;stroke-width:0;stroke-linecap:round;stroke-linejoin:round;stop-color:#000000"
       id="rect4209"
       width="214.28987"
       height="51.826832"
       x="92.817703"
       y="197.81007"
       ry="0" />
    <g
       aria-label="Manifestor"
       id="text2983"
       style="font-size:35.2595px;line-height:1.25;font-family:Mulish;-inkscape-font-specification:Mulish;fill:#ffffff;stroke-width:0.881489">
      <path
         d="m 154.77631,209.75949 h 5.8192 l 2.82351,11.38014 q 0.44763,1.89382 0.70588,3.61548 0.25825,1.70443 0.49928,3.21949 h 0.13773 q 0.24103,-1.51506 0.49928,-3.21949 0.25825,-1.72166 0.70588,-3.61548 l 2.9096,-11.38014 h 5.69868 v 29.40587 h -4.16641 v -9.72735 q 0,-2.23815 0.0344,-4.30414 0.0517,-2.06599 0.12052,-3.78764 0.0689,-1.73887 0.15495,-3.06455 0.0861,-1.32567 0.15495,-2.10042 h -0.32712 l -4.44187,19.19646 h -2.82351 l -4.4763,-19.19646 h -0.32712 q 0.0689,0.77475 0.15495,2.10042 0.0861,1.32568 0.15495,3.06455 0.0689,1.72165 0.1033,3.78764 0.0516,2.06599 0.0516,4.30414 v 9.72735 h -4.16641 z"
         style="font-family:'Fjalla One';-inkscape-font-specification:'Fjalla One'"
         id="path4126" />
      <path
         d="m 182.59826,239.42361 q -1.10186,0 -1.96269,-0.43042 -0.84361,-0.44763 -1.42897,-1.20515 -0.58536,-0.75753 -0.89526,-1.79053 -0.29268,-1.05021 -0.29268,-2.27258 0,-1.46341 0.36154,-2.5997 0.36155,-1.13629 1.05021,-2.04877 0.70588,-0.91248 1.73888,-1.65279 1.03299,-0.75753 2.3931,-1.42897 0.65423,-0.32712 1.4634,-0.65423 0.8264,-0.34433 1.46341,-0.58536 v -3.13342 q 0,-0.68866 -0.0517,-1.27402 -0.0516,-0.60258 -0.25825,-1.033 -0.18938,-0.44763 -0.58536,-0.68866 -0.39598,-0.25825 -1.08464,-0.25825 -0.46485,0 -0.91248,0.17217 -0.43041,0.17217 -0.77475,0.58536 -0.32711,0.4132 -0.53371,1.10186 -0.18938,0.68866 -0.18938,1.70444 v 1.03299 h -3.3228 q -0.15494,-0.67144 -0.24103,-1.22237 -0.0689,-0.56815 -0.0689,-1.11908 0,-1.32567 0.44763,-2.34145 0.46484,-1.01577 1.27402,-1.70444 0.8264,-0.68866 1.96269,-1.03299 1.13629,-0.36155 2.4964,-0.36155 1.7733,0 2.94403,0.39598 1.17072,0.37877 1.85939,1.15351 0.70588,0.77475 0.98134,1.94547 0.29268,1.17073 0.29268,2.73743 v 17.75027 h -3.23671 l -0.3099,-2.03155 q -0.70588,1.01577 -1.89382,1.65279 -1.17072,0.63701 -2.68578,0.63701 z m 1.92825,-3.35723 q 0.55093,0 1.06743,-0.27546 0.53371,-0.29269 0.89526,-0.70588 v -7.42034 q -0.34433,0.13774 -0.77474,0.32712 -0.43042,0.18938 -0.9297,0.49928 -0.46485,0.29268 -0.91248,0.70588 -0.44763,0.41319 -0.80917,0.98134 -0.34433,0.56815 -0.56815,1.29124 -0.2066,0.70588 -0.2066,1.58392 0,1.36011 0.53371,2.18651 0.53372,0.82639 1.70444,0.82639 z"
         style="font-family:'Fjalla One';-inkscape-font-specification:'Fjalla One'"
         id="path4128" />
      <path
         d="m 195.23521,215.45817 h 3.35722 l 0.39599,2.53083 v 0.0172 q 0.51649,-0.80918 1.10185,-1.34289 0.60258,-0.55093 1.2396,-0.87805 0.63701,-0.32711 1.29124,-0.46485 0.67144,-0.13773 1.32567,-0.13773 2.0832,0 3.20228,1.46341 1.13629,1.44619 1.13629,4.35579 v 18.16346 h -4.35578 v -18.00851 q 0,-1.56671 -0.48207,-2.16929 -0.48206,-0.6198 -1.41176,-0.6198 -0.65422,0 -1.30845,0.43042 -0.63702,0.43041 -1.1363,1.18794 v 19.17924 h -4.35578 z"
         style="font-family:'Fjalla One';-inkscape-font-specification:'Fjalla One'"
         id="path4130" />
      <path
         d="m 215.12032,212.06651 q -1.20515,0 -1.91103,-0.7231 -0.68867,-0.72309 -0.68867,-2.11763 0,-0.77475 0.17217,-1.29125 0.18938,-0.53371 0.5165,-0.84361 0.34433,-0.32711 0.82639,-0.46484 0.48206,-0.15495 1.10186,-0.15495 1.29124,0 1.96269,0.65423 0.67144,0.65423 0.67144,2.10042 0,1.34289 -0.68866,2.10041 -0.67144,0.74032 -1.96269,0.74032 z m -2.25536,3.39166 h 4.35578 v 23.70719 h -4.35578 z"
         style="font-family:'Fjalla One';-inkscape-font-specification:'Fjalla One'"
         id="path4132" />
      <path
         d="m 222.35128,218.55715 h -2.04877 v -3.09898 h 2.04877 v -1.70444 q 0,-1.92826 0.39598,-3.13341 0.39598,-1.22238 1.08464,-1.89382 0.70588,-0.68867 1.63557,-0.9297 0.94691,-0.24103 2.03156,-0.24103 0.30989,0 0.68866,0.0344 0.39598,0.0344 0.77474,0.12052 0.39598,0.0689 0.75753,0.17216 0.37877,0.1033 0.67145,0.25825 v 3.06455 q -0.7231,-0.18938 -1.61836,-0.18938 -0.43041,0 -0.82639,0.13773 -0.37877,0.13773 -0.67145,0.46485 -0.29268,0.30989 -0.46485,0.84361 -0.17216,0.51649 -0.17216,1.29124 v 1.70444 h 3.28836 v 3.09898 h -3.28836 v 20.60821 h -4.28692 z"
         style="font-family:'Fjalla One';-inkscape-font-specification:'Fjalla One'"
         id="path4134" />
      <path
         d="m 238.08721,239.42361 q -1.53227,0 -2.72021,-0.56815 -1.17073,-0.56814 -1.97991,-1.7733 -0.80918,-1.20516 -1.22237,-3.08177 -0.4132,-1.89382 -0.4132,-4.54517 v -4.4763 q 0,-2.25537 0.32711,-3.85651 0.34433,-1.61835 0.87805,-2.703 0.55093,-1.10186 1.25681,-1.73887 0.72309,-0.63701 1.48062,-0.96412 0.75753,-0.34434 1.49784,-0.43042 0.75753,-0.1033 1.39454,-0.1033 1.17073,0 2.25537,0.36155 1.08464,0.34433 1.91104,1.20516 0.82639,0.84361 1.30845,2.27258 0.49928,1.42898 0.49928,3.56383 0,0.7231 -0.0516,1.46341 -0.0344,0.74031 -0.10329,1.4634 -0.0689,0.70588 -0.18939,1.37733 -0.1033,0.67144 -0.22381,1.23959 h -7.86797 v 2.41032 q 0,1.54949 0.12052,2.61691 0.12052,1.05021 0.39598,1.70444 0.29268,0.63701 0.77474,0.9297 0.49928,0.27546 1.2396,0.27546 0.39598,0 0.77474,-0.15495 0.37877,-0.17216 0.65423,-0.55093 0.29268,-0.37876 0.46485,-0.99856 0.17216,-0.63701 0.17216,-1.5667 v -0.74032 h 3.6327 v 0.91248 q 0,3.37444 -1.61836,4.92393 -1.60114,1.53228 -4.64847,1.53228 z m 2.41032,-14.22087 q 0.0172,-0.18939 0.0344,-0.49928 0.0172,-0.32712 0.0172,-0.67145 0.0172,-0.34433 0.0172,-0.67145 0,-0.34433 0,-0.58536 0,-2.34145 -0.55093,-3.37444 -0.55093,-1.033 -1.63557,-1.033 -0.56814,0 -0.99856,0.27547 -0.43041,0.25825 -0.70588,0.89526 -0.27546,0.6198 -0.41319,1.65279 -0.13774,1.03299 -0.13774,2.56527 v 1.44619 z"
         style="font-family:'Fjalla One';-inkscape-font-specification:'Fjalla One'"
         id="path4136" />
      <path
         d="m 247.31528,234.20699 q 0,-0.77474 0.13773,-1.49784 0.15495,-0.72309 0.29268,-1.15351 h 3.06455 q 0,1.29124 0.12051,2.16929 0.13774,0.86083 0.43042,1.37732 0.29268,0.5165 0.77474,0.74031 0.49928,0.22382 1.20516,0.22382 0.98135,0 1.42898,-0.55093 0.44763,-0.55093 0.44763,-1.27402 0,-0.37877 -0.1033,-0.7231 -0.1033,-0.34433 -0.29268,-0.68866 -0.18939,-0.36155 -0.46485,-0.7231 -0.27547,-0.36154 -0.6198,-0.79196 l -3.18506,-3.75321 q -0.6198,-0.77474 -1.20516,-1.5667 -0.56814,-0.80918 -1.01577,-1.65279 -0.43042,-0.86083 -0.70588,-1.79052 -0.25825,-0.9297 -0.25825,-1.96269 0,-1.37732 0.46485,-2.3931 0.48206,-1.01578 1.27402,-1.68722 0.80918,-0.67145 1.85939,-0.99856 1.05021,-0.32712 2.22093,-0.32712 1.29124,0 2.32424,0.3099 1.03299,0.3099 1.7733,0.92969 0.74031,0.6198 1.13629,1.54949 0.39599,0.91248 0.39599,2.13486 0,0.82639 -0.15495,1.60114 -0.13774,0.77474 -0.27547,1.32567 h -3.0129 q -0.0172,-1.17073 -0.10329,-2.04877 -0.0861,-0.87804 -0.32712,-1.44619 -0.22381,-0.58536 -0.63701,-0.87804 -0.39598,-0.29269 -1.05021,-0.29269 -0.56815,0 -0.94691,0.18939 -0.37877,0.17216 -0.6198,0.46484 -0.22381,0.29268 -0.32711,0.65423 -0.0861,0.36155 -0.0861,0.74031 0,0.8264 0.39598,1.53228 0.39598,0.70588 1.05021,1.53227 l 3.47774,4.08032 q 0.37876,0.46485 0.87804,1.1363 0.49928,0.65422 0.94691,1.4634 0.44763,0.79196 0.75753,1.73887 0.3099,0.94691 0.3099,1.97991 0,1.25681 -0.39598,2.2898 -0.39598,1.01578 -1.17073,1.73887 -0.77474,0.7231 -1.91103,1.11908 -1.11908,0.39598 -2.56527,0.39598 -1.18794,0 -2.23815,-0.25825 -1.05021,-0.27547 -1.82496,-0.87804 -0.77474,-0.6198 -1.22237,-1.61836 -0.44763,-0.99856 -0.44763,-2.46197 z"
         style="font-family:'Fjalla One';-inkscape-font-specification:'Fjalla One'"
         id="path4138" />
      <path
         d="m 263.01677,218.55715 h -1.84217 v -3.09898 h 2.22094 l 0.87804,-6.14631 h 3.09898 v 6.14631 h 3.78764 v 3.09898 h -3.78764 v 15.0817 q 0,0.77474 0.13773,1.2568 0.15495,0.46485 0.4132,0.74032 0.25825,0.25824 0.60258,0.34433 0.34433,0.0861 0.7231,0.0861 0.63701,0 1.11907,-0.15495 0.49928,-0.15495 0.94691,-0.43041 v 2.41031 q -0.37876,0.46485 -0.82639,0.75753 -0.43042,0.29268 -0.89526,0.48207 -0.46485,0.17216 -0.94691,0.24103 -0.48207,0.0689 -0.94691,0.0689 -0.91248,0 -1.75609,-0.24103 -0.84361,-0.24103 -1.49784,-0.91247 -0.65423,-0.68867 -1.05021,-1.89383 -0.37877,-1.20515 -0.37877,-3.13341 z"
         style="font-family:'Fjalla One';-inkscape-font-specification:'Fjalla One'"
         id="path4140" />
      <path
         d="m 280.11281,239.42361 q -0.75753,0 -1.54949,-0.12052 -0.77475,-0.12051 -1.51506,-0.49928 -0.72309,-0.37876 -1.37732,-1.08464 -0.63701,-0.70588 -1.11908,-1.85939 -0.48206,-1.15351 -0.75753,-2.84073 -0.27546,-1.68722 -0.27546,-4.02867 v -3.71878 q 0,-2.30702 0.27546,-3.94259 0.29268,-1.65279 0.77475,-2.77186 0.49928,-1.11908 1.15351,-1.77331 0.65423,-0.67144 1.37732,-1.01577 0.74031,-0.36155 1.51506,-0.46485 0.77474,-0.12052 1.51505,-0.12052 0.70588,0 1.46341,0.1033 0.75753,0.1033 1.48062,0.44763 0.7231,0.32712 1.36011,0.99856 0.65423,0.65423 1.1363,1.77331 0.49928,1.11907 0.77474,2.78908 0.29268,1.65279 0.29268,3.97702 v 3.71878 q 0,2.30702 -0.29268,3.97702 -0.29268,1.67001 -0.79196,2.82352 -0.49928,1.1535 -1.15351,1.8766 -0.65423,0.70588 -1.37732,1.10186 -0.7231,0.39598 -1.48063,0.5165 -0.74031,0.13773 -1.42897,0.13773 z m 0.0344,-3.35723 q 0.58536,0 0.98134,-0.29268 0.4132,-0.3099 0.65423,-0.99856 0.25825,-0.68866 0.36155,-1.80774 0.12052,-1.13629 0.12052,-2.8063 v -5.83641 q 0,-1.67 -0.12052,-2.8063 -0.1033,-1.13629 -0.36155,-1.82495 -0.24103,-0.70588 -0.65423,-1.01578 -0.39598,-0.3099 -0.98134,-0.3099 -0.61979,0 -1.05021,0.3099 -0.4132,0.3099 -0.68866,1.01578 -0.27547,0.68866 -0.39598,1.82495 -0.12052,1.1363 -0.12052,2.8063 v 5.83641 q 0,1.67001 0.12052,2.8063 0.12051,1.11908 0.39598,1.80774 0.27546,0.68866 0.68866,0.99856 0.43042,0.29268 1.05021,0.29268 z"
         style="font-family:'Fjalla One';-inkscape-font-specification:'Fjalla One'"
         id="path4142" />
      <path
         d="m 290.49439,215.45817 h 3.18506 l 0.37877,2.41031 q 0.72309,-1.34289 1.65279,-2.01433 0.94691,-0.67145 1.92825,-0.67145 1.87661,0 2.77187,1.15351 0.89526,1.15351 0.89526,3.46053 0,0.29268 -0.0516,0.70588 -0.0344,0.39598 -0.12052,0.84361 -0.0689,0.43041 -0.18938,0.87804 -0.1033,0.43042 -0.22382,0.79196 h -3.03011 v -2.20371 q 0,-0.7231 -0.1033,-1.18795 -0.0861,-0.46484 -0.24103,-0.74031 -0.15495,-0.29268 -0.36155,-0.39598 -0.2066,-0.12052 -0.44763,-0.12052 -0.51649,0 -0.96412,0.34434 -0.43042,0.32711 -0.7231,0.92969 v 19.52357 h -4.35579 z"
         style="font-family:'Fjalla One';-inkscape-font-specification:'Fjalla One'"
         id="path4144" />
    </g>
    <circle
       style="opacity:1;fill:#963475;fill-opacity:1;stroke:none;stroke-width:1.97741;stroke-linecap:round;stroke-linejoin:round;stroke-miterlimit:4;stroke-dasharray:none;stop-color:#000000"
       id="path26099"
       cx="119.02753"
       cy="223.91016"
       r="23.014467" />
    <path
       sodipodi:type="spiral"
       style="fill:#ffffff;fill-rule:evenodd;stroke:#ffffff;stroke-width:0;stroke-linecap:round;stroke-linejoin:round;stroke-miterlimit:4;stroke-dasharray:none"
       id="path25856"
       sodipodi:cx="440.85443"
       sodipodi:cy="830.89801"
       sodipodi:expansion="0.93000001"
       sodipodi:revolution="5.2252712"
       sodipodi:radius="163.51424"
       sodipodi:argument="-33.131489"
       sodipodi:t0="0"
       d="m 440.85443,830.89801 c -0.86273,-5.91777 7.29548,-4.22152 9.57705,-1.3962 5.55124,6.87423 -0.004,16.45138 -6.91691,19.64312 -11.90644,5.4977 -25.18495,-2.82117 -29.2646,-14.36837 -5.83289,-16.50959 5.4963,-33.82754 21.53616,-38.64398 20.95968,-6.29376 42.35554,8.08462 47.85156,28.52824 6.80693,25.31984 -10.61325,50.77979 -35.39355,56.92604 -29.61538,7.3455 -59.11341,-13.09741 -65.89201,-42.16005 -7.89754,-33.85995 15.54645,-67.36775 48.84578,-74.76653 38.06218,-8.45704 75.55212,17.96662 83.56212,55.46335 9.0207,42.22809 -20.36237,83.67407 -62.02203,92.2883 -46.36219,9.5866 -91.73987,-22.73695 -100.95265,-68.52891 -10.15353,-50.46794 25.09292,-99.75469 74.98964,-109.56126 54.54813,-10.72075 107.72288,27.43229 118.11914,81.40874 11.28777,58.60506 -29.75668,115.64819 -87.78997,126.63054 -62.64064,11.85426 -123.53381,-32.06743 -135.09904,-94.13649 -12.41999,-66.65648 34.36569,-131.3825 100.45098,-143.5277 70.65399,-12.98485 139.19671,36.65239 151.91924,106.73571 13.5487,74.6344 -38.92839,146.97859 -112.99273,160.27601 -78.59875,14.11151 -154.73003,-41.1944 -168.60007,-119.22378 -14.67325,-82.548 43.45103,-162.45273 125.43041,-176.8933 76.97589,-13.55921 153.75488,33.3404 178.84576,106.96267"
       transform="matrix(0.10724497,-0.04589161,0.04589161,0.10724497,34.026922,155.55509)" />
  </g>
</svg>
